<svg version="1.1" xmlns="http://www.w3.org/2000/svg" xmlns:xlink="http://www.w3.org/1999/xlink" width="1238" height="446"><defs></defs><g><g transform="translate(-46,-30) scale(1,1)"><rect fill="#C0C0C0" stroke="none" x="63" y="47" width="72" height="39" opacity="0.2"></rect></g><g transform="translate(-46,-30) scale(1,1)"><rect fill="#ffffff" stroke="none" x="56" y="40" width="72" height="39"></rect></g><g transform="translate(-46,-30) scale(1,1)"><path fill="none" stroke="#000000" d="M 56 40 L 128 40 L 128 79 L 56 79 L 56 40 Z Z" stroke-miterlimit="10"></path></g><g transform="translate(-46,-30) scale(1,1)"><g><path fill="none" stroke="none"></path><text fill="#000000" stroke="none" font-family="Arial" font-size="13px" font-style="normal" font-weight="bold" text-decoration="none" x="68" y="59.5">Frontent</text></g></g><g transform="translate(-46,-30) scale(1,1)"><path fill="none" stroke="#000000" d="M 93.5 80 L 93.5 466" stroke-miterlimit="10" stroke-dasharray="3"></path></g><g transform="translate(-46,-30) scale(1,1)"><rect fill="#C0C0C0" stroke="none" x="279" y="47" width="88" height="39" opacity="0.2"></rect></g><g transform="translate(-46,-30) scale(1,1)"><rect fill="#ffffff" stroke="none" x="272" y="40" width="88" height="39"></rect></g><g transform="translate(-46,-30) scale(1,1)"><path fill="none" stroke="#000000" d="M 272 40 L 360 40 L 360 79 L 272 79 L 272 40 Z Z" stroke-miterlimit="10"></path></g><g transform="translate(-46,-30) scale(1,1)"><g><path fill="none" stroke="none"></path><text fill="#000000" stroke="none" font-family="Arial" font-size="13px" font-style="normal" font-weight="bold" text-decoration="none" x="285.5" y="59.5">Webserver</text></g></g><g transform="translate(-46,-30) scale(1,1)"><path fill="none" stroke="#000000" d="M 317.5 80 L 317.5 466" stroke-miterlimit="10" stroke-dasharray="3"></path></g><g transform="translate(-46,-30) scale(1,1)"><rect fill="#C0C0C0" stroke="none" x="719" y="47" width="127" height="39" opacity="0.2"></rect></g><g transform="translate(-46,-30) scale(1,1)"><rect fill="#ffffff" stroke="none" x="712" y="40" width="127" height="39"></rect></g><g transform="translate(-46,-30) scale(1,1)"><path fill="none" stroke="#000000" d="M 712 40 L 839 40 L 839 79 L 712 79 L 712 40 Z Z" stroke-miterlimit="10"></path></g><g transform="translate(-46,-30) scale(1,1)"><g><path fill="none" stroke="none"></path><text fill="#000000" stroke="none" font-family="Arial" font-size="13px" font-style="normal" font-weight="bold" text-decoration="none" x="726.5" y="59.5">Cassandrareader</text></g></g><g transform="translate(-46,-30) scale(1,1)"><path fill="none" stroke="#000000" d="M 776.5 80 L 776.5 464" stroke-miterlimit="10" stroke-dasharray="3"></path></g><g transform="translate(-46,-30) scale(1,1)"><rect fill="#C0C0C0" stroke="none" x="951" y="47" width="105" height="39" opacity="0.2"></rect></g><g transform="translate(-46,-30) scale(1,1)"><rect fill="#ffffff" stroke="none" x="944" y="40" width="105" height="39"></rect></g><g transform="translate(-46,-30) scale(1,1)"><path fill="none" stroke="#000000" d="M 944 40 L 1049 40 L 1049 79 L 944 79 L 944 40 Z Z" stroke-miterlimit="10"></path></g><g transform="translate(-46,-30) scale(1,1)"><g><path fill="none" stroke="none"></path><text fill="#000000" stroke="none" font-family="Arial" font-size="13px" font-style="normal" font-weight="bold" text-decoration="none" x="956" y="59.5">ElasticSearch</text></g></g><g transform="translate(-46,-30) scale(1,1)"><path fill="none" stroke="#000000" d="M 997.5 80 L 997.5 464" stroke-miterlimit="10" stroke-dasharray="3"></path></g><g transform="translate(-46,-30) scale(1,1)"><rect fill="#C0C0C0" stroke="none" x="1159" y="47" width="122" height="39" opacity="0.2"></rect></g><g transform="translate(-46,-30) scale(1,1)"><rect fill="#ffffff" stroke="none" x="1152" y="40" width="122" height="39"></rect></g><g transform="translate(-46,-30) scale(1,1)"><path fill="none" stroke="#000000" d="M 1152 40 L 1274 40 L 1274 79 L 1152 79 L 1152 40 Z Z" stroke-miterlimit="10"></path></g><g transform="translate(-46,-30) scale(1,1)"><g><path fill="none" stroke="none"></path><text fill="#000000" stroke="none" font-family="Arial" font-size="13px" font-style="normal" font-weight="bold" text-decoration="none" x="1166.5" y="59.5">SparkStreaming</text></g></g><g transform="translate(-46,-30) scale(1,1)"><path fill="none" stroke="#000000" d="M 1214.5 80 L 1214.5 464" stroke-miterlimit="10" stroke-dasharray="3"></path></g><g transform="translate(-46,-30) scale(1,1)"><rect fill="#C0C0C0" stroke="none" x="519" y="47" width="71.736328125" height="39" opacity="0.2"></rect></g><g transform="translate(-46,-30) scale(1,1)"><rect fill="#ffffff" stroke="none" x="512" y="40" width="71.736328125" height="39"></rect></g><g transform="translate(-46,-30) scale(1,1)"><path fill="none" stroke="#000000" d="M 512 40 L 583.736328125 40 L 583.736328125 79 L 512 79 L 512 40 Z Z" stroke-miterlimit="10"></path></g><g transform="translate(-46,-30) scale(1,1)"><g><path fill="none" stroke="none"></path><text fill="#000000" stroke="none" font-family="Arial" font-size="13px" font-style="normal" font-weight="bold" text-decoration="none" x="531.3681640625" y="59.5">Kafka</text></g></g><g transform="translate(-46,-30) scale(1,1)"><path fill="none" stroke="#000000" d="M 548.5 80 L 548.5 464" stroke-miterlimit="10" stroke-dasharray="3"></path></g><g transform="translate(-46,-30) scale(1,1)"><path fill="none" stroke="#000000" d="M 93 128 L 310 128" stroke-miterlimit="10"></path></g><g transform="translate(-46,-30) scale(1,1)"><path fill="#000000" stroke="none" d="M 299.83732514237585 132.209517756016 L 310 128 L 299.83732514237585 123.79048224398402"></path></g><g transform="translate(-46,-30) scale(1,1)"><path fill="none" stroke="#000000" d="M 299.83732514237585 132.209517756016 L 310 128 L 299.83732514237585 123.79048224398402 L 299.83732514237585 132.209517756016" stroke-miterlimit="10"></path></g><g transform="translate(-46,-30) scale(1,1)"><g><path fill="none" stroke="none"></path><text fill="#000000" stroke="none" font-family="Arial" font-size="13px" font-style="normal" font-weight="normal" text-decoration="none" x="138.5" y="124.5">1 : POST - new tweet</text></g></g><g transform="translate(-46,-30) scale(1,1)"><rect fill="#ffffff" stroke="none" x="310" y="128" width="13" height="264"></rect></g><g transform="translate(-46,-30) scale(1,1)"><path fill="none" stroke="#000000" d="M 310 128 L 323 128 L 323 392 L 310 392 L 310 128 Z Z" stroke-miterlimit="10"></path></g><g transform="translate(-46,-30) scale(1,1)"><path fill="none" stroke="#000000" d="M 323 144 L 548 144" stroke-miterlimit="10"></path></g><g transform="translate(-46,-30) scale(1,1)"><path fill="none" stroke="#000000" d="M 537.8373251423759 148.209517756016 L 548 144 L 537.8373251423758 139.790482243984" stroke-miterlimit="10"></path></g><g transform="translate(-46,-30) scale(1,1)"><g><path fill="none" stroke="none"></path><text fill="#000000" stroke="none" font-family="Arial" font-size="13px" font-style="normal" font-weight="normal" text-decoration="none" x="332.5" y="140.5">2 : Topic - USER_ISSUES_TWEET</text></g></g><g transform="translate(-46,-30) scale(1,1)"><path fill="none" stroke="#000000" d="M 548 160 L 769 160" stroke-miterlimit="10"></path></g><g transform="translate(-46,-30) scale(1,1)"><path fill="none" stroke="#000000" d="M 758.8373251423759 164.209517756016 L 769 160 L 758.8373251423758 155.790482243984" stroke-miterlimit="10"></path></g><g transform="translate(-46,-30) scale(1,1)"><g><path fill="none" stroke="none"></path><text fill="#000000" stroke="none" font-family="Arial" font-size="13px" font-style="normal" font-weight="normal" text-decoration="none" x="555.5" y="156.5">3 : Topic - USER_ISSUES_TWEET</text></g></g><g transform="translate(-46,-30) scale(1,1)"><rect fill="#ffffff" stroke="none" x="769" y="160" width="13" height="168"></rect></g><g transform="translate(-46,-30) scale(1,1)"><path fill="none" stroke="#000000" d="M 769 160 L 782 160 L 782 328 L 769 328 L 769 160 Z Z" stroke-miterlimit="10"></path></g><g transform="translate(-46,-30) scale(1,1)"><path fill="none" stroke="#000000" d="M 548 216 L 997 216" stroke-miterlimit="10"></path></g><g transform="translate(-46,-30) scale(1,1)"><path fill="none" stroke="#000000" d="M 986.8373251423759 220.209517756016 L 997 216 L 986.8373251423758 211.790482243984" stroke-miterlimit="10"></path></g><g transform="translate(-46,-30) scale(1,1)"><g><path fill="none" stroke="none"></path><text fill="#000000" stroke="none" font-family="Arial" font-size="13px" font-style="normal" font-weight="normal" text-decoration="none" x="786.5" y="204.5">4 : Topic - USER_ISSUES_TWEET</text></g></g><g transform="translate(-46,-30) scale(1,1)"><path fill="none" stroke="#000000" d="M 548 264 L 1214 264" stroke-miterlimit="10"></path></g><g transform="translate(-46,-30) scale(1,1)"><path fill="none" stroke="#000000" d="M 1203.837325142376 268.209517756016 L 1214 264 L 1203.837325142376 259.790482243984" stroke-miterlimit="10"></path></g><g transform="translate(-46,-30) scale(1,1)"><g><path fill="none" stroke="none"></path><text fill="#000000" stroke="none" font-family="Arial" font-size="13px" font-style="normal" font-weight="normal" text-decoration="none" x="1007.5" y="252.5">5 : Topic - USER_ISSUES_TWEET</text></g></g><g transform="translate(-46,-30) scale(1,1)"><path fill="none" stroke="#000000" d="M 776 328 L 548 328" stroke-miterlimit="10"></path></g><g transform="translate(-46,-30) scale(1,1)"><path fill="none" stroke="#000000" d="M 558.1626748576241 323.790482243984 L 548 328 L 558.1626748576241 332.209517756016" stroke-miterlimit="10"></path></g><g transform="translate(-46,-30) scale(1,1)"><g><path fill="none" stroke="none"></path><text fill="#000000" stroke="none" font-family="Arial" font-size="13px" font-style="normal" font-weight="normal" text-decoration="none" x="581.5" y="344.5">6 : Topic - TWEET_SAVED</text></g></g><g transform="translate(-46,-30) scale(1,1)"><path fill="none" stroke="#000000" d="M 548 345 L 323 345" stroke-miterlimit="10"></path></g><g transform="translate(-46,-30) scale(1,1)"><path fill="none" stroke="#000000" d="M 333.16267485762415 340.790482243984 L 323 345 L 333.16267485762415 349.209517756016" stroke-miterlimit="10"></path></g><g transform="translate(-46,-30) scale(1,1)"><g><path fill="none" stroke="none"></path><text fill="#000000" stroke="none" font-family="Arial" font-size="13px" font-style="normal" font-weight="normal" text-decoration="none" x="331.9638671875" y="364.5">7 : Topic - Topic - TWEET_SAVED</text></g></g><g transform="translate(-46,-30) scale(1,1)"><path fill="none" stroke="#000000" d="M 317 392 L 93 392" stroke-miterlimit="10" stroke-dasharray="3"></path></g><g transform="translate(-46,-30) scale(1,1)"><path fill="none" stroke="#000000" d="M 103.16267485762415 387.790482243984 L 93 392 L 103.16267485762415 396.209517756016" stroke-miterlimit="10"></path></g><g transform="translate(-46,-30) scale(1,1)"><g><path fill="none" stroke="none"></path><text fill="#000000" stroke="none" font-family="Arial" font-size="13px" font-style="normal" font-weight="normal" text-decoration="none" x="145.331298828125" y="408.5">8 : POST - Reponse</text></g></g></g></svg>