<svg version="1.1" xmlns="http://www.w3.org/2000/svg" xmlns:xlink="http://www.w3.org/1999/xlink" width="1197" height="446"><defs></defs><g><g transform="translate(-62,-30) scale(1,1)"><rect fill="#C0C0C0" stroke="none" x="79" y="47" width="72" height="39" opacity="0.2"></rect></g><g transform="translate(-62,-30) scale(1,1)"><rect fill="#ffffff" stroke="none" x="72" y="40" width="72" height="39"></rect></g><g transform="translate(-62,-30) scale(1,1)"><path fill="none" stroke="#000000" d="M 72 40 L 144 40 L 144 79 L 72 79 L 72 40 Z Z" stroke-miterlimit="10"></path></g><g transform="translate(-62,-30) scale(1,1)"><g><path fill="none" stroke="none"></path><text fill="#000000" stroke="none" font-family="Arial" font-size="13px" font-style="normal" font-weight="bold" text-decoration="none" x="84" y="59.5">Frontent</text></g></g><g transform="translate(-62,-30) scale(1,1)"><path fill="none" stroke="#000000" d="M 109.5 80 L 109.5 466" stroke-miterlimit="10" stroke-dasharray="3"></path></g><g transform="translate(-62,-30) scale(1,1)"><rect fill="#C0C0C0" stroke="none" x="279" y="47" width="88" height="39" opacity="0.2"></rect></g><g transform="translate(-62,-30) scale(1,1)"><rect fill="#ffffff" stroke="none" x="272" y="40" width="88" height="39"></rect></g><g transform="translate(-62,-30) scale(1,1)"><path fill="none" stroke="#000000" d="M 272 40 L 360 40 L 360 79 L 272 79 L 272 40 Z Z" stroke-miterlimit="10"></path></g><g transform="translate(-62,-30) scale(1,1)"><g><path fill="none" stroke="none"></path><text fill="#000000" stroke="none" font-family="Arial" font-size="13px" font-style="normal" font-weight="bold" text-decoration="none" x="285.5" y="59.5">Webserver</text></g></g><g transform="translate(-62,-30) scale(1,1)"><path fill="none" stroke="#000000" d="M 317.5 80 L 317.5 466" stroke-miterlimit="10" stroke-dasharray="3"></path></g><g transform="translate(-62,-30) scale(1,1)"><rect fill="#C0C0C0" stroke="none" x="831" y="47" width="127" height="39" opacity="0.2"></rect></g><g transform="translate(-62,-30) scale(1,1)"><rect fill="#ffffff" stroke="none" x="824" y="40" width="127" height="39"></rect></g><g transform="translate(-62,-30) scale(1,1)"><path fill="none" stroke="#000000" d="M 824 40 L 951 40 L 951 79 L 824 79 L 824 40 Z Z" stroke-miterlimit="10"></path></g><g transform="translate(-62,-30) scale(1,1)"><g><path fill="none" stroke="none"></path><text fill="#000000" stroke="none" font-family="Arial" font-size="13px" font-style="normal" font-weight="bold" text-decoration="none" x="838.5" y="59.5">Cassandrareader</text></g></g><g transform="translate(-62,-30) scale(1,1)"><path fill="none" stroke="#000000" d="M 888.5 80 L 888.5 464" stroke-miterlimit="10" stroke-dasharray="3"></path></g><g transform="translate(-62,-30) scale(1,1)"><rect fill="#C0C0C0" stroke="none" x="1151" y="47" width="105" height="39" opacity="0.2"></rect></g><g transform="translate(-62,-30) scale(1,1)"><rect fill="#ffffff" stroke="none" x="1144" y="40" width="105" height="39"></rect></g><g transform="translate(-62,-30) scale(1,1)"><path fill="none" stroke="#000000" d="M 1144 40 L 1249 40 L 1249 79 L 1144 79 L 1144 40 Z Z" stroke-miterlimit="10"></path></g><g transform="translate(-62,-30) scale(1,1)"><g><path fill="none" stroke="none"></path><text fill="#000000" stroke="none" font-family="Arial" font-size="13px" font-style="normal" font-weight="bold" text-decoration="none" x="1156" y="59.5">ElasticSearch</text></g></g><g transform="translate(-62,-30) scale(1,1)"><path fill="none" stroke="#000000" d="M 1197.5 80 L 1197.5 464" stroke-miterlimit="10" stroke-dasharray="3"></path></g><g transform="translate(-62,-30) scale(1,1)"><rect fill="#C0C0C0" stroke="none" x="575" y="47" width="85.46630859375" height="39" opacity="0.2"></rect></g><g transform="translate(-62,-30) scale(1,1)"><rect fill="#ffffff" stroke="none" x="568" y="40" width="85.46630859375" height="39"></rect></g><g transform="translate(-62,-30) scale(1,1)"><path fill="none" stroke="#000000" d="M 568 40 L 653.46630859375 40 L 653.46630859375 79 L 568 79 L 568 40 Z Z" stroke-miterlimit="10"></path></g><g transform="translate(-62,-30) scale(1,1)"><g><path fill="none" stroke="none"></path><text fill="#000000" stroke="none" font-family="Arial" font-size="13px" font-style="normal" font-weight="bold" text-decoration="none" x="594.233154296875" y="59.5">Kafka</text></g></g><g transform="translate(-62,-30) scale(1,1)"><path fill="none" stroke="#000000" d="M 611.5 80 L 611.5 464" stroke-miterlimit="10" stroke-dasharray="3"></path></g><g transform="translate(-62,-30) scale(1,1)"><path fill="none" stroke="#000000" d="M 109 128 L 310 128" stroke-miterlimit="10"></path></g><g transform="translate(-62,-30) scale(1,1)"><path fill="#000000" stroke="none" d="M 299.83732514237585 132.209517756016 L 310 128 L 299.83732514237585 123.79048224398402"></path></g><g transform="translate(-62,-30) scale(1,1)"><path fill="none" stroke="#000000" d="M 299.83732514237585 132.209517756016 L 310 128 L 299.83732514237585 123.79048224398402 L 299.83732514237585 132.209517756016" stroke-miterlimit="10"></path></g><g transform="translate(-62,-30) scale(1,1)"><g><path fill="none" stroke="none"></path><text fill="#000000" stroke="none" font-family="Arial" font-size="13px" font-style="normal" font-weight="normal" text-decoration="none" x="138.5" y="124.5">1 : POST - search tweet</text></g></g><g transform="translate(-62,-30) scale(1,1)"><rect fill="#ffffff" stroke="none" x="310" y="128" width="13" height="264"></rect></g><g transform="translate(-62,-30) scale(1,1)"><path fill="none" stroke="#000000" d="M 310 128 L 323 128 L 323 392 L 310 392 L 310 128 Z Z" stroke-miterlimit="10"></path></g><g transform="translate(-62,-30) scale(1,1)"><path fill="none" stroke="#000000" d="M 323 144 L 611 144" stroke-miterlimit="10"></path></g><g transform="translate(-62,-30) scale(1,1)"><path fill="none" stroke="#000000" d="M 600.8373251423759 148.209517756016 L 611 144 L 600.8373251423758 139.790482243984" stroke-miterlimit="10"></path></g><g transform="translate(-62,-30) scale(1,1)"><g><path fill="none" stroke="none"></path><text fill="#000000" stroke="none" font-family="Arial" font-size="13px" font-style="normal" font-weight="normal" text-decoration="none" x="335.83447265625" y="139.5">2 : Topic - USER_TWEET_SEARCH_TEXT</text></g></g><g transform="translate(-62,-30) scale(1,1)"><path fill="none" stroke="#000000" d="M 611 160 L 1190 160" stroke-miterlimit="10"></path></g><g transform="translate(-62,-30) scale(1,1)"><path fill="none" stroke="#000000" d="M 1179.837325142376 164.209517756016 L 1190 160 L 1179.837325142376 155.790482243984" stroke-miterlimit="10"></path></g><g transform="translate(-62,-30) scale(1,1)"><g><path fill="none" stroke="none"></path><text fill="#000000" stroke="none" font-family="Arial" font-size="13px" font-style="normal" font-weight="normal" text-decoration="none" x="919.83447265625" y="148.5">3 : Topic - USER_TWEET_SEARCH_TEXT</text></g></g><g transform="translate(-62,-30) scale(1,1)"><rect fill="#ffffff" stroke="none" x="1190" y="160" width="13" height="48"></rect></g><g transform="translate(-62,-30) scale(1,1)"><path fill="none" stroke="#000000" d="M 1190 160 L 1203 160 L 1203 208 L 1190 208 L 1190 160 Z Z" stroke-miterlimit="10"></path></g><g transform="translate(-62,-30) scale(1,1)"><path fill="none" stroke="#000000" d="M 1197 208 L 611 208" stroke-miterlimit="10"></path></g><g transform="translate(-62,-30) scale(1,1)"><path fill="none" stroke="#000000" d="M 621.1626748576241 203.790482243984 L 611 208 L 621.1626748576241 212.209517756016" stroke-miterlimit="10"></path></g><g transform="translate(-62,-30) scale(1,1)"><g><path fill="none" stroke="none"></path><text fill="#000000" stroke="none" font-family="Arial" font-size="13px" font-style="normal" font-weight="normal" text-decoration="none" x="689.389404296875" y="227.5">4 : Topic - USER_TWEET_SEARCH_TEXT_ANSWER_ELASTIC_SEARCH</text></g></g><g transform="translate(-62,-30) scale(1,1)"><path fill="none" stroke="#000000" d="M 611 272 L 881 272" stroke-miterlimit="10"></path></g><g transform="translate(-62,-30) scale(1,1)"><path fill="none" stroke="#000000" d="M 870.8373251423759 276.209517756016 L 881 272 L 870.8373251423758 267.790482243984" stroke-miterlimit="10"></path></g><g transform="translate(-62,-30) scale(1,1)"><g><path fill="none" stroke="none"></path><text fill="#000000" stroke="none" font-family="Arial" font-size="13px" font-style="normal" font-weight="normal" text-decoration="none" x="626.389404296875" y="260.5">5 : Topic - USER_TWEET_SEARCH_TEXT_ANSWER_ELASTIC_SEARCH</text></g></g><g transform="translate(-62,-30) scale(1,1)"><rect fill="#ffffff" stroke="none" x="881" y="272" width="13" height="40"></rect></g><g transform="translate(-62,-30) scale(1,1)"><path fill="none" stroke="#000000" d="M 881 272 L 894 272 L 894 312 L 881 312 L 881 272 Z Z" stroke-miterlimit="10"></path></g><g transform="translate(-62,-30) scale(1,1)"><path fill="none" stroke="#000000" d="M 888 312 L 611 312" stroke-miterlimit="10"></path></g><g transform="translate(-62,-30) scale(1,1)"><path fill="none" stroke="#000000" d="M 621.1626748576241 307.790482243984 L 611 312 L 621.1626748576241 316.209517756016" stroke-miterlimit="10"></path></g><g transform="translate(-62,-30) scale(1,1)"><g><path fill="none" stroke="none"></path><text fill="#000000" stroke="none" font-family="Arial" font-size="13px" font-style="normal" font-weight="normal" text-decoration="none" x="633.09716796875" y="331.5">6 : USER_TWEET_SEARCH_TEXT_ANSWER_CASSANDRA</text></g></g><g transform="translate(-62,-30) scale(1,1)"><path fill="none" stroke="#000000" d="M 317 392 L 109 392" stroke-miterlimit="10" stroke-dasharray="3"></path></g><g transform="translate(-62,-30) scale(1,1)"><path fill="none" stroke="#000000" d="M 119.16267485762415 387.790482243984 L 109 392 L 119.16267485762415 396.209517756016" stroke-miterlimit="10"></path></g><g transform="translate(-62,-30) scale(1,1)"><g><path fill="none" stroke="none"></path><text fill="#000000" stroke="none" font-family="Arial" font-size="13px" font-style="normal" font-weight="normal" text-decoration="none" x="153.140380859375" y="408.5">8 : POST - Reponse</text></g></g><g transform="translate(-62,-30) scale(1,1)"><path fill="none" stroke="#000000" d="M 611 336 L 323 336" stroke-miterlimit="10"></path></g><g transform="translate(-62,-30) scale(1,1)"><path fill="none" stroke="#000000" d="M 333.16267485762415 331.790482243984 L 323 336 L 333.16267485762415 340.209517756016" stroke-miterlimit="10"></path></g><g transform="translate(-62,-30) scale(1,1)"><g><path fill="none" stroke="none"></path><text fill="#000000" stroke="none" font-family="Arial" font-size="13px" font-style="normal" font-weight="normal" text-decoration="none" x="337.09716796875" y="355.5">7 : USER_TWEET_SEARCH_TEXT_ANSWER_CASSANDRA</text></g></g></g></svg>